<svg width="147" height="117" viewBox="0 0 147 117" fill="none" xmlns="http://www.w3.org/2000/svg">
<rect width="147" height="117" fill="white"/>
<path d="M85.418 32C94.7386 32 101 38.5398 101 48.271V70.729C101 80.4602 94.7386 87 85.4153 87H61.582C52.2615 87 46 80.4602 46 70.729V48.271C46 38.5398 52.2615 32 61.582 32H85.418ZM88.4506 61.0126C85.5028 59.1736 83.2269 61.7562 82.613 62.582C82.0212 63.3795 81.5124 64.2593 80.9759 65.1391C79.6652 67.3101 78.1636 69.8132 75.5642 71.2691C71.7867 73.3607 68.9191 71.4337 66.8561 70.0317C66.0818 69.5095 65.3297 69.0157 64.5803 68.6865C62.733 67.8891 61.0711 68.7972 58.6044 71.9303C57.3102 73.5679 56.0271 75.1912 54.7274 76.8088C53.9503 77.7766 54.1356 79.2693 55.1837 79.9164C56.8567 80.9466 58.8975 81.5 61.2038 81.5H84.3801C85.6881 81.5 86.9988 81.3212 88.2488 80.9125C91.0639 79.993 93.2983 77.8873 94.4653 75.106C95.4497 72.7675 95.9281 69.9296 95.0073 67.5684C94.7003 66.7851 94.2413 66.0557 93.5969 65.4143C91.9073 63.7371 90.3283 62.1705 88.4506 61.0126ZM63.8719 43C60.0806 43 57 46.0848 57 49.875C57 53.6652 60.0806 56.75 63.8719 56.75C67.6604 56.75 70.7437 53.6652 70.7437 49.875C70.7437 46.0848 67.6604 43 63.8719 43Z" fill="#888F9A"/>
</svg>
