<svg width="306" height="210" viewBox="0 0 306 210" fill="none" xmlns="http://www.w3.org/2000/svg">
<g clip-path="url(#clip0_9_215)">
<path d="M144.354 197.212C199.127 197.212 243.529 153.064 243.529 98.6058C243.529 44.1473 199.127 0 144.354 0C89.5813 0 45.1793 44.1473 45.1793 98.6058C45.1793 153.064 89.5813 197.212 144.354 197.212Z" fill="#E6E6E6"/>
<path d="M235.343 31.4234C235.1 31.9778 234.847 32.5263 234.583 33.0687C212.995 33.9307 178.858 34.9578 155.666 33.945C155.526 33.6729 155.389 33.3993 155.254 33.1242C153.797 30.1489 156.183 26.724 159.49 27.0907L159.568 27.0993C159.568 27.0993 163.903 14.1693 175.462 17.7609C175.462 17.7609 201.471 -22.7315 226.758 20.1459C226.758 20.1459 226.902 20.1201 227.168 20.0966C233.292 19.5576 237.794 25.8173 235.343 31.4234Z" fill="white"/>
<path d="M251.821 92.7163H238.959V203.437H251.821V92.7163Z" fill="#2F2E43"/>
<path d="M284.991 205.418C284.192 200.88 283.209 196.324 281.24 192.154C279.272 187.983 276.226 184.186 272.124 182.044C265.691 178.686 257.061 180.206 252.179 185.557C247.297 190.908 246.614 199.595 250.601 205.635" fill="#E6E6E6"/>
<path d="M251.906 205.967C251.24 197.629 246.672 189.547 239.497 185.181C232.323 180.815 222.648 180.548 215.553 185.041C208.458 189.534 204.594 198.792 206.971 206.814" fill="#E6E6E6"/>
<path d="M305.5 205.762C304.04 200.219 299.143 195.727 293.469 194.726C290.688 194.235 287.524 194.653 285.589 196.699C283.216 199.207 283.474 203.119 283.885 206.538" fill="#E6E6E6"/>
<path d="M144.354 127.885C168.469 127.885 188.018 108.448 188.018 84.4711C188.018 60.4945 168.469 41.0577 144.354 41.0577C120.239 41.0577 100.69 60.4945 100.69 84.4711C100.69 108.448 120.239 127.885 144.354 127.885Z" fill="#FFC305"/>
<path d="M305.441 205.874C305.441 207.732 172.574 210 111.352 210C50.1302 210 0.5 208.493 0.5 206.635C0.5 204.776 50.1302 203.269 111.352 203.269C172.574 203.269 305.441 204.015 305.441 205.874Z" fill="#E6E6E6"/>
<path d="M24.0172 171.46L26.9014 182.74L55.2265 187.62V166.114L24.0172 164.736V171.46Z" fill="#2F2E43"/>
<path d="M197.495 159.183H52.9644V192.837H197.495V159.183Z" fill="#2F2E43"/>
<path d="M60.0724 188.462C60.0724 197.941 56.4056 205.625 43.9947 205.625C33.2761 205.625 29.6093 197.941 29.6093 188.462C29.6093 178.982 35.1151 171.298 43.9947 171.298C52.8742 171.298 60.0724 178.982 60.0724 188.462Z" fill="#2F2E43"/>
<path d="M39.7637 200.913C43.5024 200.913 46.5333 194.962 46.5333 187.62C46.5333 180.279 43.5024 174.327 39.7637 174.327C36.0249 174.327 32.9941 180.279 32.9941 187.62C32.9941 194.962 36.0249 200.913 39.7637 200.913Z" fill="white"/>
<path d="M39.7637 191.154C42.3808 191.154 44.5024 189.044 44.5024 186.442C44.5024 183.84 42.3808 181.731 39.7637 181.731C37.1465 181.731 35.0249 183.84 35.0249 186.442C35.0249 189.044 37.1465 191.154 39.7637 191.154Z" fill="#2F2E43"/>
<path d="M195.464 206.635C206.12 206.635 214.758 196.992 214.758 185.096C214.758 173.201 206.12 163.558 195.464 163.558C184.809 163.558 176.171 173.201 176.171 185.096C176.171 196.992 184.809 206.635 195.464 206.635Z" fill="#2F2E43"/>
<path d="M104.075 203.269C112.3 203.269 118.968 196.037 118.968 187.115C118.968 178.194 112.3 170.962 104.075 170.962C95.8496 170.962 89.1817 178.194 89.1817 187.115C89.1817 196.037 95.8496 203.269 104.075 203.269Z" fill="#2F2E43"/>
<path d="M131.153 210C141.809 210 150.447 200.357 150.447 188.462C150.447 176.566 141.809 166.923 131.153 166.923C120.498 166.923 111.86 176.566 111.86 188.462C111.86 200.357 120.498 210 131.153 210Z" fill="#2F2E43"/>
<path d="M127.599 202.933C134.235 202.933 139.615 195.851 139.615 187.115C139.615 178.38 134.235 171.298 127.599 171.298C120.963 171.298 115.583 178.38 115.583 187.115C115.583 195.851 120.963 202.933 127.599 202.933Z" fill="white"/>
<path d="M127.43 191.49C130.982 191.49 133.861 188.628 133.861 185.096C133.861 181.565 130.982 178.702 127.43 178.702C123.878 178.702 120.999 181.565 120.999 185.096C120.999 188.628 123.878 191.49 127.43 191.49Z" fill="#2F2E43"/>
<path d="M16.9163 177.635V152.023C16.9163 149.775 18.7496 147.952 21.0111 147.952H26.4765C26.4765 147.952 30.9632 121.154 39.4252 117.452C47.8872 113.75 123.707 96.9231 165.34 113.413L179.217 138.654C179.217 138.654 210.696 138.654 214.081 145.721C214.081 145.721 228.974 142.019 230.328 158.173L226.604 177.019L225.251 183.75L151.8 181.394L138.261 179.712C138.261 179.712 136.23 164.231 126.414 164.231C116.599 164.231 112.537 166.587 112.537 166.587C112.537 166.587 105.09 178.702 107.46 190.817H52.3072C52.3072 190.817 49.918 171.971 38.7482 171.635C33.6621 171.481 28.5938 169.615 26.9014 182.74L20.8394 182.025C18.6017 181.761 16.9163 179.875 16.9163 177.635Z" fill="#325F8F"/>
<path d="M176.627 138.149H110.405C108.223 138.149 106.386 136.594 106.037 134.452L103.544 119.128C103.365 118.027 103.645 116.936 104.332 116.056C105.019 115.177 106.011 114.638 107.127 114.538C143.117 111.309 157.805 113.647 162.449 114.802C165.3 115.511 167.698 117.539 168.862 120.227L176.627 138.149Z" fill="white"/>
<path d="M80.992 141.227C80.4603 141.227 79.9407 141.216 79.4345 141.193C78.5825 141.154 77.787 140.755 77.252 140.097C76.7202 139.444 76.4944 138.593 76.6327 137.763L79.316 121.658C79.5288 120.38 80.58 119.375 81.8719 119.214L94.7617 117.601C96.2851 117.409 97.6901 118.39 98.0264 119.882L101.493 135.259C101.667 136.03 101.529 136.821 101.103 137.487C100.679 138.151 100.02 138.612 99.2466 138.783C94.9743 139.728 87.2183 141.227 80.992 141.227Z" fill="white"/>
<path d="M43.848 144.301C43.0427 144.301 42.2785 143.936 41.7751 143.303C41.2338 142.623 41.0659 141.722 41.3257 140.893C43.4021 134.274 47.2263 123.019 49.5109 122.01C51.786 121.004 63.5147 120.109 70.3036 119.665C71.1148 119.613 71.8925 119.926 72.4369 120.526C72.9822 121.127 73.2164 121.929 73.0797 122.727L70.0428 140.478C69.8377 141.677 68.8421 142.574 67.6217 142.658L44.0327 144.295C43.9711 144.299 43.9093 144.301 43.848 144.301Z" fill="white"/>
<path d="M67.1805 185.096V151.725L72.2081 144.375H104.145L99.6746 153.125L100.705 185.096H67.1805Z" stroke="#2F2E43" stroke-miterlimit="10" stroke-linecap="round"/>
<path d="M56.9385 185.096H67.1805" stroke="#2F2E43" stroke-miterlimit="10" stroke-linecap="round"/>
<path d="M35.1112 171.46C35.1112 171.46 37.0558 148.751 40.4406 147.573L68.8729 145.385" stroke="#2F2E43" stroke-miterlimit="10" stroke-linecap="round"/>
<path d="M42.133 155.481H46.659" stroke="#2F2E43" stroke-miterlimit="10" stroke-linecap="round"/>
<path d="M76.3195 151.481H70.4885V154.135H76.3195V151.481Z" stroke="#2F2E43" stroke-miterlimit="10" stroke-linecap="round"/>
<path d="M104.145 144.375L163.817 142.188C163.817 142.188 171.061 146.052 172.685 158.423L212.896 160.024C212.896 160.024 216.619 150.938 214.081 145.721" stroke="#2F2E43" stroke-miterlimit="10" stroke-linecap="round"/>
<path d="M160.939 166.923C165.239 166.923 168.724 163.458 168.724 159.183C168.724 154.908 165.239 151.442 160.939 151.442C156.64 151.442 153.154 154.908 153.154 159.183C153.154 163.458 156.64 166.923 160.939 166.923Z" fill="#2F2E43"/>
<path d="M160.939 164.904C164.117 164.904 166.694 162.342 166.694 159.183C166.694 156.023 164.117 153.462 160.939 153.462C157.762 153.462 155.185 156.023 155.185 159.183C155.185 162.342 157.762 164.904 160.939 164.904Z" fill="white"/>
<path d="M225.081 168.101C228.446 168.101 231.174 164.786 231.174 160.697C231.174 156.608 228.446 153.293 225.081 153.293C221.716 153.293 218.989 156.608 218.989 160.697C218.989 164.786 221.716 168.101 225.081 168.101Z" fill="#2F2E43"/>
<path d="M224.574 166.923C226.817 166.923 228.635 164.211 228.635 160.865C228.635 157.52 226.817 154.808 224.574 154.808C222.33 154.808 220.512 157.52 220.512 160.865C220.512 164.211 222.33 166.923 224.574 166.923Z" fill="white"/>
<path d="M159.755 173.822C160.876 173.822 161.786 172.541 161.786 170.962C161.786 169.382 160.876 168.101 159.755 168.101C158.633 168.101 157.724 169.382 157.724 170.962C157.724 172.541 158.633 173.822 159.755 173.822Z" fill="white"/>
<path d="M223.897 176.346C224.831 176.346 225.589 175.141 225.589 173.654C225.589 172.167 224.831 170.962 223.897 170.962C222.962 170.962 222.204 172.167 222.204 173.654C222.204 175.141 222.962 176.346 223.897 176.346Z" fill="white"/>
<path d="M217.804 173.99H168.724L169.74 167.114C169.74 163.477 172.705 160.529 176.363 160.529H210.91C214.717 160.529 217.804 163.598 217.804 167.384V173.99Z" fill="#2F2E43"/>
<path d="M240.805 106.296C240.805 106.296 222.374 103.809 228.635 81.2674H231.174C231.174 81.2674 228.128 92.7163 239.974 98.4375L240.805 106.296Z" fill="#2F2E43"/>
<path d="M250.806 113.918C250.806 113.918 262.653 97.7644 262.653 91.3702H259.38C259.38 91.3702 256.174 101.13 248.921 102.644L250.806 113.918Z" fill="#2F2E43"/>
<path d="M220.024 90.1119C219.387 95.0403 214.243 98.6739 209.251 98.426C204.26 98.1781 199.809 94.632 197.64 90.1558C195.47 85.6796 195.34 80.4379 196.341 75.5698C191.319 68.8491 188.408 60.5914 188.113 52.2241C187.951 47.6349 188.668 42.758 191.586 39.1986C193.925 36.3454 197.591 34.6146 201.293 34.6155C204.995 34.6165 208.66 36.349 210.998 39.2034L210.363 39.1279C209.789 34.5225 209.214 29.8708 209.68 25.2533C210.146 20.6359 211.75 15.9889 215 12.6577C218.345 9.22847 223.066 7.51676 227.703 6.26874C234.443 4.45512 241.596 3.39554 248.392 4.98948C255.188 6.58343 261.569 11.2665 263.605 17.9069C268.966 17.7135 274.526 18.3073 279.202 20.922C283.877 23.5367 287.488 28.5066 287.276 33.836C287.064 39.1654 282.173 44.2248 276.845 43.6075C280.305 45.8097 283.702 48.2465 286.187 51.4988C288.671 54.751 290.161 58.9523 289.372 62.9604C288.582 66.9684 285.133 70.5493 281.029 70.7242L280.13 71.1821C285.069 75.7716 284.895 84.195 280.86 89.5887C276.825 94.9824 269.881 97.6059 263.131 97.9823C256.381 98.3588 249.692 96.7778 243.119 95.2079C235.431 93.372 227.744 91.5362 220.057 89.7004L220.024 90.1119Z" fill="#325F8F"/>
<path d="M119.606 32.6505C119.492 32.9103 119.374 33.1673 119.25 33.4213C109.136 33.8252 93.1429 34.3064 82.2777 33.8319C82.212 33.7044 82.1476 33.5762 82.0845 33.4473C81.402 32.0534 82.5197 30.4489 84.0693 30.6207L84.1055 30.6247C84.1055 30.6247 86.1364 24.567 91.5521 26.2497C91.5521 26.2497 103.737 7.27906 115.584 27.367C115.584 27.367 115.651 27.355 115.776 27.344C118.645 27.0914 120.754 30.0241 119.606 32.6505Z" fill="white"/>
<path d="M110.444 84.2599C110.201 84.8144 109.948 85.3629 109.684 85.9052C88.0959 86.7672 53.9588 87.7944 30.7672 86.7816C30.627 86.5095 30.4896 86.2358 30.3549 85.9607C28.8981 82.9854 31.2837 79.5606 34.5914 79.9272L34.6687 79.9358C34.6687 79.9358 39.0036 67.0058 50.5632 70.5975C50.5632 70.5975 76.5724 30.105 101.859 72.9824C101.859 72.9824 102.002 72.9567 102.269 72.9332C108.393 72.3941 112.895 78.6538 110.444 84.2599Z" fill="white"/>
</g>
<defs>
<clipPath id="clip0_9_215">
<rect width="305" height="210" fill="white" transform="translate(0.5)"/>
</clipPath>
</defs>
</svg>
