<svg width="42" height="42" viewBox="0 0 42 42" fill="none" xmlns="http://www.w3.org/2000/svg">
<rect width="42" height="42" rx="21" fill="#FFC305" fill-opacity="0.8"/>
<path d="M17 14H15C14.4696 14 13.9609 14.2107 13.5858 14.5858C13.2107 14.9609 13 15.4696 13 16V28C13 28.5304 13.2107 29.0391 13.5858 29.4142C13.9609 29.7893 14.4696 30 15 30H25C25.5304 30 26.0391 29.7893 26.4142 29.4142C26.7893 29.0391 27 28.5304 27 28V27M17 14C17 14.5304 17.2107 15.0391 17.5858 15.4142C17.9609 15.7893 18.4696 16 19 16H21C21.5304 16 22.0391 15.7893 22.4142 15.4142C22.7893 15.0391 23 14.5304 23 14M17 14C17 13.4696 17.2107 12.9609 17.5858 12.5858C17.9609 12.2107 18.4696 12 19 12H21C21.5304 12 22.0391 12.2107 22.4142 12.5858C22.7893 12.9609 23 13.4696 23 14M23 14H25C25.5304 14 26.0391 14.2107 26.4142 14.5858C26.7893 14.9609 27 15.4696 27 16V19M29 23H19M19 23L22 20M19 23L22 26" stroke="white" stroke-width="2" stroke-linecap="round" stroke-linejoin="round"/>
</svg>
