<svg width="42" height="42" viewBox="0 0 42 42" fill="none" xmlns="http://www.w3.org/2000/svg">
<rect width="42" height="42" rx="21" fill="#3A77F2" fill-opacity="0.8"/>
<path d="M20 14.882V28.24C19.9997 28.6545 19.8531 29.0555 19.5861 29.3725C19.3191 29.6896 18.9488 29.9022 18.5404 29.9729C18.132 30.0437 17.7118 29.968 17.3537 29.7593C16.9956 29.5506 16.7227 29.2222 16.583 28.832L14.436 22.682M14.436 22.682C13.5872 22.3211 12.8892 21.6791 12.46 20.8627C12.0308 20.0463 11.8969 19.1067 12.0809 18.2029C12.2649 17.2991 12.7555 16.4867 13.4696 15.903C14.1838 15.3193 15.0776 15.0004 16 15H17.832C21.932 15 25.457 13.766 27 12V26C25.457 24.234 21.933 23 17.832 23H16C15.4626 23.0008 14.9306 22.892 14.436 22.682ZM27 22C27.7956 22 28.5587 21.6839 29.1213 21.1213C29.6839 20.5587 30 19.7956 30 19C30 18.2044 29.6839 17.4413 29.1213 16.8787C28.5587 16.3161 27.7956 16 27 16" stroke="white" stroke-width="2" stroke-linecap="round" stroke-linejoin="round"/>
</svg>
