<svg width="20" height="20" viewBox="0 0 20 20" fill="none" xmlns="http://www.w3.org/2000/svg">
<path d="M11.9583 2.5C12.7667 2.50832 13.425 2.92453 13.8083 3.6737C13.9073 3.87139 14.0453 4.16013 14.1898 4.46473L14.3643 4.83304L14.45 5.01387L14.5333 5.197C14.5667 5.25527 14.625 5.29689 14.7 5.29689C16.7 5.29689 18.3333 6.92841 18.3333 8.92619V13.8707C18.3333 15.8685 16.7 17.5 14.7 17.5H5.29999C3.29166 17.5 1.66666 15.8685 1.66666 13.8707V8.92619C1.66666 6.92841 3.29166 5.29689 5.29999 5.29689C5.36666 5.29689 5.43332 5.2636 5.45832 5.197L5.50832 5.09711C5.74166 4.60599 6.02499 4.00666 6.19166 3.6737C6.57499 2.92453 7.22499 2.50832 8.03332 2.5H11.9583ZM9.99999 7.83574C9.12499 7.83574 8.29999 8.17703 7.67499 8.80133C7.05832 9.42564 6.71666 10.2414 6.72499 11.1071C6.72499 11.9811 7.06666 12.7969 7.68332 13.4212C8.30832 14.0372 9.12499 14.3785 9.99999 14.3785C10.9 14.3785 11.7167 14.0122 12.3083 13.4212C12.9 12.8302 13.2667 12.0144 13.275 11.1071C13.275 10.2414 12.9333 9.41731 12.3167 8.79301C11.7 8.17703 10.875 7.83574 9.99999 7.83574ZM9.99999 9.08435C10.5417 9.08435 11.05 9.29245 11.4333 9.67536C11.8167 10.0583 12.025 10.566 12.025 11.1071C12.0167 12.2225 11.1167 13.1299 9.99999 13.1299C9.45832 13.1299 8.94999 12.9218 8.56666 12.5388C8.18332 12.1559 7.97499 11.6482 7.97499 11.1071V11.0988C7.96666 10.5744 8.17499 10.0666 8.55832 9.68368C8.94999 9.29245 9.45832 9.08435 9.99999 9.08435ZM14.675 7.63596C14.2583 7.63596 13.925 7.97725 13.925 8.39345C13.925 8.80966 14.2583 9.14262 14.675 9.14262C15.0917 9.14262 15.4333 8.80966 15.4333 8.39345C15.4333 7.97725 15.0917 7.63596 14.675 7.63596Z" fill="#0D0D12"/>
</svg>
