<svg width="17" height="17" viewBox="0 0 17 17" fill="none" xmlns="http://www.w3.org/2000/svg">
<path d="M14.9985 6.82789C14.7482 6.56625 14.4892 6.29664 14.3916 6.05957C14.3013 5.84242 14.2959 5.4825 14.2906 5.13387C14.2807 4.48574 14.27 3.75129 13.7594 3.24062C13.2487 2.72996 12.5143 2.71934 11.8661 2.70937C11.5175 2.70406 11.1576 2.69875 10.9404 2.60844C10.704 2.51082 10.4337 2.25184 10.1721 2.00148C9.71391 1.56121 9.19328 1.0625 8.5 1.0625C7.80672 1.0625 7.28676 1.56121 6.82789 2.00148C6.56625 2.25184 6.29664 2.51082 6.05957 2.60844C5.84375 2.69875 5.4825 2.70406 5.13387 2.70937C4.48574 2.71934 3.75129 2.72996 3.24062 3.24062C2.72996 3.75129 2.72266 4.48574 2.70937 5.13387C2.70406 5.4825 2.69875 5.84242 2.60844 6.05957C2.51082 6.29598 2.25184 6.56625 2.00148 6.82789C1.56121 7.28609 1.0625 7.80672 1.0625 8.5C1.0625 9.19328 1.56121 9.71324 2.00148 10.1721C2.25184 10.4337 2.51082 10.7034 2.60844 10.9404C2.69875 11.1576 2.70406 11.5175 2.70937 11.8661C2.71934 12.5143 2.72996 13.2487 3.24062 13.7594C3.75129 14.27 4.48574 14.2807 5.13387 14.2906C5.4825 14.2959 5.84242 14.3013 6.05957 14.3916C6.29598 14.4892 6.56625 14.7482 6.82789 14.9985C7.28609 15.4388 7.80672 15.9375 8.5 15.9375C9.19328 15.9375 9.71324 15.4388 10.1721 14.9985C10.4337 14.7482 10.7034 14.4892 10.9404 14.3916C11.1576 14.3013 11.5175 14.2959 11.8661 14.2906C12.5143 14.2807 13.2487 14.27 13.7594 13.7594C14.27 13.2487 14.2807 12.5143 14.2906 11.8661C14.2959 11.5175 14.3013 11.1576 14.3916 10.9404C14.4892 10.704 14.7482 10.4337 14.9985 10.1721C15.4388 9.71391 15.9375 9.19328 15.9375 8.5C15.9375 7.80672 15.4388 7.28676 14.9985 6.82789ZM11.5321 7.28211L7.81336 11.0009C7.76402 11.0503 7.70543 11.0894 7.64094 11.1162C7.57644 11.1429 7.50731 11.1567 7.4375 11.1567C7.36769 11.1567 7.29856 11.1429 7.23406 11.1162C7.16957 11.0894 7.11098 11.0503 7.06164 11.0009L5.46789 9.40711C5.41853 9.35775 5.37938 9.29915 5.35267 9.23466C5.32595 9.17017 5.3122 9.10105 5.3122 9.03125C5.3122 8.96145 5.32595 8.89233 5.35267 8.82784C5.37938 8.76335 5.41853 8.70475 5.46789 8.65539C5.56757 8.55571 5.70278 8.4997 5.84375 8.4997C5.91355 8.4997 5.98267 8.51345 6.04716 8.54017C6.11165 8.56688 6.17025 8.60603 6.21961 8.65539L7.4375 9.87395L10.7804 6.53039C10.8297 6.48103 10.8883 6.44188 10.9528 6.41517C11.0173 6.38845 11.0864 6.3747 11.1562 6.3747C11.2261 6.3747 11.2952 6.38845 11.3597 6.41517C11.4242 6.44188 11.4828 6.48103 11.5321 6.53039C11.5815 6.57975 11.6206 6.63835 11.6473 6.70284C11.674 6.76733 11.6878 6.83645 11.6878 6.90625C11.6878 6.97605 11.674 7.04517 11.6473 7.10966C11.6206 7.17415 11.5815 7.23275 11.5321 7.28211Z" fill="#2E546C"/>
</svg>
