<svg width="24" height="23" viewBox="0 0 24 23" fill="none" xmlns="http://www.w3.org/2000/svg">
<path d="M17 12C15.6167 12 14.4377 11.5123 13.463 10.537C12.4877 9.56233 12 8.38333 12 7C12 5.63333 12.4833 4.45833 13.45 3.475C14.4167 2.49167 15.6 2 17 2C18.3833 2 19.5627 2.48733 20.538 3.462C21.5127 4.43733 22 5.61667 22 7C22 8.38333 21.5127 9.56233 20.538 10.537C19.5627 11.5123 18.3833 12 17 12ZM16.5 8H17.5V4H16.5V8ZM3 21C2.71667 21 2.47933 20.904 2.288 20.712C2.096 20.5207 2 20.2833 2 20V12L4.1 6C4.2 5.7 4.37933 5.45833 4.638 5.275C4.896 5.09167 5.18333 5 5.5 5H10.3C10.2 5.31667 10.125 5.64167 10.075 5.975C10.025 6.30833 10 6.65 10 7H5.85L4.8 10H10.675C10.8583 10.3833 11.0707 10.7417 11.312 11.075C11.554 11.4083 11.825 11.7167 12.125 12H4V17H18V13.925C18.35 13.875 18.6917 13.8 19.025 13.7C19.3583 13.6 19.6833 13.475 20 13.325V20C20 20.2833 19.904 20.5207 19.712 20.712C19.5207 20.904 19.2833 21 19 21H18C17.7167 21 17.4793 20.904 17.288 20.712C17.096 20.5207 17 20.2833 17 20V19H5V20C5 20.2833 4.90433 20.5207 4.713 20.712C4.521 20.904 4.28333 21 4 21H3ZM17 10C17.1333 10 17.25 9.95 17.35 9.85C17.45 9.75 17.5 9.63333 17.5 9.5C17.5 9.36667 17.45 9.25 17.35 9.15C17.25 9.05 17.1333 9 17 9C16.8667 9 16.75 9.05 16.65 9.15C16.55 9.25 16.5 9.36667 16.5 9.5C16.5 9.63333 16.55 9.75 16.65 9.85C16.75 9.95 16.8667 10 17 10ZM6.5 16C6.91667 16 7.27067 15.854 7.562 15.562C7.854 15.2707 8 14.9167 8 14.5C8 14.0833 7.854 13.7293 7.562 13.438C7.27067 13.146 6.91667 13 6.5 13C6.08333 13 5.72933 13.146 5.438 13.438C5.146 13.7293 5 14.0833 5 14.5C5 14.9167 5.146 15.2707 5.438 15.562C5.72933 15.854 6.08333 16 6.5 16ZM15.5 16C15.9167 16 16.2707 15.854 16.562 15.562C16.854 15.2707 17 14.9167 17 14.5C17 14.4167 16.996 14.3333 16.988 14.25C16.9793 14.1667 16.9583 14.0833 16.925 14C16.475 14 16.0377 13.9583 15.613 13.875C15.1877 13.7917 14.7833 13.6667 14.4 13.5C14.2667 13.6333 14.1667 13.7873 14.1 13.962C14.0333 14.1373 14 14.3167 14 14.5C14 14.9167 14.146 15.2707 14.438 15.562C14.7293 15.854 15.0833 16 15.5 16Z" fill="#003874"/>
</svg>
