<svg width="16" height="16" viewBox="0 0 16 16" fill="none" xmlns="http://www.w3.org/2000/svg">
<path d="M4.33331 10.6667C4.61109 10.6667 4.8472 10.5695 5.04165 10.3751C5.23609 10.1806 5.33331 9.94453 5.33331 9.66675C5.33331 9.38897 5.23609 9.15286 5.04165 8.95842C4.8472 8.76397 4.61109 8.66675 4.33331 8.66675C4.05554 8.66675 3.81942 8.76397 3.62498 8.95842C3.43054 9.15286 3.33331 9.38897 3.33331 9.66675C3.33331 9.94453 3.43054 10.1806 3.62498 10.3751C3.81942 10.5695 4.05554 10.6667 4.33331 10.6667ZM10.3333 10.6667C10.5555 10.6667 10.7555 10.6001 10.9333 10.4667C11.1111 10.3334 11.2278 10.1612 11.2833 9.95008C11.0611 9.90564 10.85 9.83064 10.65 9.72508C10.45 9.61953 10.2666 9.48342 10.1 9.31675L9.68331 8.90008C9.5722 8.98897 9.48609 9.10008 9.42498 9.23342C9.36387 9.36675 9.33331 9.51119 9.33331 9.66675C9.33331 9.94453 9.43053 10.1806 9.62498 10.3751C9.81942 10.5695 10.0555 10.6667 10.3333 10.6667ZM3.33331 12.6667V13.3334C3.33331 13.5223 3.26942 13.6806 3.14165 13.8084C3.01387 13.9362 2.85554 14.0001 2.66665 14.0001H1.99998C1.81109 14.0001 1.65276 13.9362 1.52498 13.8084C1.3972 13.6806 1.33331 13.5223 1.33331 13.3334V8.00008L2.73331 4.00008C2.79998 3.80008 2.91942 3.63897 3.09165 3.51675C3.26387 3.39453 3.45554 3.33341 3.66665 3.33341H5.99998V4.25008C5.99998 4.31675 6.00276 4.38619 6.00831 4.45841C6.01387 4.53064 6.0222 4.60008 6.03331 4.66675H3.89998L3.19998 6.66675H7.44998L8.78331 8.00008H2.66665V11.3334H12V9.98342C12.2444 9.96119 12.4805 9.90008 12.7083 9.80008C12.9361 9.70008 13.1444 9.56119 13.3333 9.38342V13.3334C13.3333 13.5223 13.2694 13.6806 13.1416 13.8084C13.0139 13.9362 12.8555 14.0001 12.6666 14.0001H12C11.8111 14.0001 11.6528 13.9362 11.525 13.8084C11.3972 13.6806 11.3333 13.5223 11.3333 13.3334V12.6667H3.33331ZM9.99998 4.00008C10.1889 4.00008 10.3472 3.93619 10.475 3.80841C10.6028 3.68064 10.6666 3.5223 10.6666 3.33341C10.6666 3.14453 10.6028 2.98619 10.475 2.85841C10.3472 2.73064 10.1889 2.66675 9.99998 2.66675C9.81109 2.66675 9.65276 2.73064 9.52498 2.85841C9.3972 2.98619 9.33331 3.14453 9.33331 3.33341C9.33331 3.5223 9.3972 3.68064 9.52498 3.80841C9.65276 3.93619 9.81109 4.00008 9.99998 4.00008ZM11.0333 8.36675L7.63331 4.96675C7.54442 4.87786 7.4722 4.76953 7.41665 4.64175C7.36109 4.51397 7.33331 4.38341 7.33331 4.25008V1.66675C7.33331 1.38897 7.43053 1.15286 7.62498 0.958415C7.81942 0.76397 8.05553 0.666748 8.33331 0.666748H10.9166C11.05 0.666748 11.1805 0.694526 11.3083 0.750081C11.4361 0.805637 11.5444 0.877859 11.6333 0.966748L15.0333 4.36675C15.2222 4.55564 15.3166 4.79175 15.3166 5.07508C15.3166 5.35842 15.2222 5.59453 15.0333 5.78341L12.45 8.36675C12.2611 8.55564 12.025 8.65008 11.7416 8.65008C11.4583 8.65008 11.2222 8.55564 11.0333 8.36675ZM11.75 7.20008L13.8666 5.08342L10.7833 2.00008H8.66665V4.11675L11.75 7.20008Z" fill="black"/>
</svg>
