<svg width="20" height="20" viewBox="0 0 20 20" fill="none" xmlns="http://www.w3.org/2000/svg">
<path d="M13.6115 1.6665C16.4359 1.6665 18.3333 3.64826 18.3333 6.5971V13.4026C18.3333 16.3514 16.4359 18.3332 13.6107 18.3332H6.38847C3.56407 18.3332 1.66666 16.3514 1.66666 13.4026V6.5971C1.66666 3.64826 3.56407 1.6665 6.38847 1.6665H13.6115ZM14.5305 10.4582C13.6372 9.90094 12.9475 10.6835 12.7615 10.9338C12.5822 11.1754 12.428 11.442 12.2654 11.7086C11.8682 12.3665 11.4132 13.1251 10.6255 13.5662C9.48081 14.2 8.61183 13.6161 7.98669 13.1913C7.75206 13.033 7.52413 12.8834 7.29703 12.7836C6.73726 12.542 6.23364 12.8172 5.48616 13.7666C5.09398 14.2628 4.70516 14.7547 4.31131 15.2449C4.07584 15.5382 4.13198 15.9905 4.44958 16.1866C4.95655 16.4988 5.57498 16.6665 6.27386 16.6665H13.297C13.6933 16.6665 14.0905 16.6123 14.4693 16.4885C15.3224 16.2098 15.9995 15.5717 16.3531 14.7289C16.6514 14.0203 16.7964 13.1603 16.5173 12.4448C16.4243 12.2074 16.2852 11.9864 16.09 11.7921C15.578 11.2838 15.0995 10.8091 14.5305 10.4582ZM7.08237 4.99984C5.9335 4.99984 4.99999 5.93461 4.99999 7.08317C4.99999 8.23173 5.9335 9.1665 7.08237 9.1665C8.2304 9.1665 9.16475 8.23173 9.16475 7.08317C9.16475 5.93461 8.2304 4.99984 7.08237 4.99984Z" fill="#0D0D12"/>
</svg>
