<svg width="20" height="20" viewBox="0 0 20 20" fill="none" xmlns="http://www.w3.org/2000/svg">
<path d="M12.5 5.8334C12.942 5.8334 13.366 6.00899 13.6785 6.32155C13.9911 6.63411 14.1667 7.05804 14.1667 7.50006M17.5 7.50006C17.5002 8.28104 17.3175 9.05121 16.9665 9.74885C16.6155 10.4465 16.1059 11.0522 15.4786 11.5175C14.8514 11.9827 14.1238 12.2945 13.3543 12.428C12.5848 12.5614 11.7948 12.5128 11.0475 12.2859L9.16667 14.1667H7.5V15.8334H5.83333V17.5001H3.33333C3.11232 17.5001 2.90036 17.4123 2.74408 17.256C2.5878 17.0997 2.5 16.8877 2.5 16.6667V14.5117C2.50005 14.2907 2.58788 14.0788 2.74417 13.9226L7.71417 8.95256C7.50621 8.26507 7.4488 7.54085 7.54587 6.82919C7.64293 6.11752 7.89219 5.43512 8.27666 4.82843C8.66113 4.22175 9.1718 3.70502 9.77391 3.31341C10.376 2.92181 11.0554 2.66452 11.7659 2.55907C12.4764 2.45361 13.2012 2.50247 13.8911 2.7023C14.581 2.90213 15.2198 3.24826 15.7639 3.71712C16.308 4.18597 16.7447 4.76656 17.0443 5.41935C17.3439 6.07214 17.4993 6.78181 17.5 7.50006Z" stroke="#0F172A" stroke-width="1.5" stroke-linecap="round" stroke-linejoin="round"/>
</svg>
