<svg width="18" height="18" viewBox="0 0 18 18" fill="none" xmlns="http://www.w3.org/2000/svg">
<path fill-rule="evenodd" clip-rule="evenodd" d="M6.75 9.09058C6.75 8.77993 7.00184 8.52808 7.3125 8.52808H16.3433C16.6539 8.52808 16.9058 8.77993 16.9058 9.09058C16.9058 9.40123 16.6539 9.65308 16.3433 9.65308H7.3125C7.00184 9.65308 6.75 9.40123 6.75 9.09058Z" fill="#0F172A"/>
<path fill-rule="evenodd" clip-rule="evenodd" d="M13.7496 6.50663C13.9688 6.28652 14.325 6.28578 14.5451 6.505L16.7411 8.69201C16.8471 8.79753 16.9067 8.94101 16.9067 9.09056C16.9067 9.24018 16.8471 9.38358 16.7411 9.48911L14.5451 11.6761C14.325 11.8953 13.9688 11.8946 13.7496 11.6745C13.5304 11.4544 13.5311 11.0982 13.7512 10.879L15.547 9.09056L13.7512 7.30213C13.5311 7.08291 13.5304 6.72676 13.7496 6.50663Z" fill="#0F172A"/>
<path fill-rule="evenodd" clip-rule="evenodd" d="M10.7162 3.33745C11.2988 3.76911 11.59 4.47479 11.7098 5.77401C11.7383 6.08336 12.0122 6.31102 12.3215 6.2825C12.6308 6.25399 12.8585 5.98009 12.83 5.67075C12.7022 4.28497 12.3672 3.16065 11.386 2.43356C10.4453 1.73647 9.02792 1.49988 7.01987 1.49988C4.35751 1.49988 2.72059 1.91728 1.88055 3.28483C1.48017 3.93663 1.30324 4.74385 1.21726 5.66792C1.13162 6.58837 1.13162 7.69412 1.13162 8.97617V9.02357C1.13162 10.3056 1.13162 11.4114 1.21726 12.3318C1.30324 13.2559 1.48017 14.0631 1.88055 14.7149C2.72059 16.0825 4.35751 16.4999 7.01987 16.4999C9.02792 16.4999 10.4453 16.2633 11.386 15.5662C12.3672 14.8391 12.7022 13.7148 12.83 12.329C12.8585 12.0197 12.6308 11.7458 12.3215 11.7173C12.0122 11.6888 11.7383 11.9164 11.7098 12.2258C11.59 13.525 11.2988 14.2307 10.7162 14.6623C10.0932 15.124 9.00931 15.3749 7.01987 15.3749C4.35649 15.3749 3.33052 14.9261 2.83914 14.1261C2.5738 13.6941 2.41787 13.0923 2.33742 12.2276C2.25716 11.365 2.25662 10.3103 2.25662 8.99987C2.25662 7.68947 2.25716 6.63478 2.33742 5.77215C2.41787 4.90747 2.5738 4.30563 2.83914 3.87367C3.33052 3.07372 4.35649 2.62488 7.01987 2.62488C9.00931 2.62488 10.0932 2.87578 10.7162 3.33745Z" fill="#0F172A"/>
</svg>
