<svg width="18" height="18" viewBox="0 0 18 18" fill="none" xmlns="http://www.w3.org/2000/svg">
<path d="M11.25 12.75H15L13.9462 11.6963C13.8047 11.5547 13.6925 11.3867 13.6159 11.2018C13.5394 11.0168 13.5 10.8186 13.5 10.6185V8.25C13.5001 7.3192 13.2117 6.41126 12.6744 5.65117C12.1372 4.89108 11.3775 4.31622 10.5 4.00575V3.75C10.5 3.35218 10.342 2.97064 10.0607 2.68934C9.77936 2.40804 9.39782 2.25 9 2.25C8.60218 2.25 8.22064 2.40804 7.93934 2.68934C7.65804 2.97064 7.5 3.35218 7.5 3.75V4.00575C5.7525 4.62375 4.5 6.291 4.5 8.25V10.6193C4.5 11.0228 4.3395 11.4105 4.05375 11.6963L3 12.75H6.75M11.25 12.75V13.5C11.25 14.0967 11.0129 14.669 10.591 15.091C10.169 15.5129 9.59674 15.75 9 15.75C8.40326 15.75 7.83097 15.5129 7.40901 15.091C6.98705 14.669 6.75 14.0967 6.75 13.5V12.75M11.25 12.75H6.75" stroke="black" stroke-linecap="round" stroke-linejoin="round"/>
</svg>
