<svg width="20" height="20" viewBox="0 0 20 20" fill="none" xmlns="http://www.w3.org/2000/svg">
<path d="M9.16667 4.16664H5C4.55797 4.16664 4.13405 4.34223 3.82149 4.65479C3.50893 4.96736 3.33333 5.39128 3.33333 5.83331V15C3.33333 15.442 3.50893 15.8659 3.82149 16.1785C4.13405 16.491 4.55797 16.6666 5 16.6666H14.1667C14.6087 16.6666 15.0326 16.491 15.3452 16.1785C15.6577 15.8659 15.8333 15.442 15.8333 15V10.8333M14.655 2.98831C14.8087 2.82912 14.9927 2.70215 15.196 2.6148C15.3993 2.52746 15.618 2.48148 15.8393 2.47956C16.0606 2.47763 16.2801 2.5198 16.4849 2.6036C16.6898 2.6874 16.8758 2.81116 17.0323 2.96765C17.1888 3.12414 17.3126 3.31022 17.3964 3.51505C17.4802 3.71988 17.5223 3.93934 17.5204 4.16064C17.5185 4.38194 17.4725 4.60064 17.3852 4.80398C17.2978 5.00732 17.1709 5.19123 17.0117 5.34497L9.85667 12.5H7.5V10.1433L14.655 2.98831Z" stroke="#003874" stroke-width="2" stroke-linecap="round" stroke-linejoin="round"/>
</svg>
