<svg width="56" height="56" viewBox="0 0 56 56" fill="none" xmlns="http://www.w3.org/2000/svg">
<rect width="56" height="56" rx="28" fill="#003874" fill-opacity="0.2"/>
<path d="M24.0001 18.6667H21.3334C20.6262 18.6667 19.9479 18.9476 19.4478 19.4477C18.9477 19.9478 18.6667 20.6261 18.6667 21.3333V37.3333C18.6667 38.0406 18.9477 38.7189 19.4478 39.219C19.9479 39.719 20.6262 40 21.3334 40H34.6667C35.374 40 36.0523 39.719 36.5524 39.219C37.0525 38.7189 37.3334 38.0406 37.3334 37.3333V21.3333C37.3334 20.6261 37.0525 19.9478 36.5524 19.4477C36.0523 18.9476 35.374 18.6667 34.6667 18.6667H32.0001M24.0001 18.6667C24.0001 19.3739 24.281 20.0522 24.7811 20.5523C25.2812 21.0524 25.9595 21.3333 26.6667 21.3333H29.3334C30.0407 21.3333 30.7189 21.0524 31.219 20.5523C31.7191 20.0522 32.0001 19.3739 32.0001 18.6667M24.0001 18.6667C24.0001 17.9594 24.281 17.2811 24.7811 16.781C25.2812 16.281 25.9595 16 26.6667 16H29.3334C30.0407 16 30.7189 16.281 31.219 16.781C31.7191 17.2811 32.0001 17.9594 32.0001 18.6667M24.0001 30.6667L26.6667 33.3333L32.0001 28" stroke="#003874" stroke-width="2" stroke-linecap="round" stroke-linejoin="round"/>
</svg>
