<svg width="30" height="30" viewBox="0 0 30 30" fill="none" xmlns="http://www.w3.org/2000/svg">
<path fill-rule="evenodd" clip-rule="evenodd" d="M15 4.5C15.3978 4.5 15.7794 4.65804 16.0607 4.93934C16.342 5.22064 16.5 5.60218 16.5 6V13.5H24C24.3978 13.5 24.7794 13.658 25.0607 13.9393C25.342 14.2206 25.5 14.6022 25.5 15C25.5 15.3978 25.342 15.7794 25.0607 16.0607C24.7794 16.342 24.3978 16.5 24 16.5H16.5V24C16.5 24.3978 16.342 24.7794 16.0607 25.0607C15.7794 25.342 15.3978 25.5 15 25.5C14.6022 25.5 14.2206 25.342 13.9393 25.0607C13.658 24.7794 13.5 24.3978 13.5 24V16.5H6C5.60218 16.5 5.22064 16.342 4.93934 16.0607C4.65804 15.7794 4.5 15.3978 4.5 15C4.5 14.6022 4.65804 14.2206 4.93934 13.9393C5.22064 13.658 5.60218 13.5 6 13.5H13.5V6C13.5 5.60218 13.658 5.22064 13.9393 4.93934C14.2206 4.65804 14.6022 4.5 15 4.5Z" fill="white"/>
</svg>
