<svg width="16" height="16" viewBox="0 0 16 16" fill="none" xmlns="http://www.w3.org/2000/svg">
<path d="M10.6667 4.66667C10.6667 5.37391 10.3857 6.05219 9.88562 6.55229C9.38552 7.05238 8.70724 7.33333 8 7.33333C7.29276 7.33333 6.61448 7.05238 6.11438 6.55229C5.61429 6.05219 5.33333 5.37391 5.33333 4.66667C5.33333 3.95942 5.61429 3.28115 6.11438 2.78105C6.61448 2.28095 7.29276 2 8 2C8.70724 2 9.38552 2.28095 9.88562 2.78105C10.3857 3.28115 10.6667 3.95942 10.6667 4.66667ZM8 9.33333C6.76232 9.33333 5.57534 9.825 4.70017 10.7002C3.825 11.5753 3.33333 12.7623 3.33333 14H12.6667C12.6667 12.7623 12.175 11.5753 11.2998 10.7002C10.4247 9.825 9.23768 9.33333 8 9.33333Z" stroke="black" stroke-width="1.5" stroke-linecap="round" stroke-linejoin="round"/>
</svg>
