<svg width="20" height="20" viewBox="0 0 20 20" fill="none" xmlns="http://www.w3.org/2000/svg">
<path d="M14.1667 16.6666H18.3333V14.9999C18.3333 14.4804 18.1714 13.9737 17.8701 13.5504C17.5688 13.1272 17.1432 12.8082 16.6523 12.638C16.1614 12.4678 15.6297 12.4548 15.1311 12.6008C14.6324 12.7467 14.1916 13.0444 13.87 13.4524M14.1667 16.6666H5.83333M14.1667 16.6666V14.9999C14.1667 14.4533 14.0617 13.9308 13.87 13.4524M13.87 13.4524C13.5605 12.6791 13.0265 12.0161 12.3367 11.5492C11.6469 11.0822 10.833 10.8327 10 10.8327C9.16701 10.8327 8.35313 11.0822 7.66333 11.5492C6.97354 12.0161 6.43946 12.6791 6.13 13.4524M5.83333 16.6666H1.66667V14.9999C1.6667 14.4804 1.82861 13.9737 2.12988 13.5504C2.43116 13.1272 2.85682 12.8082 3.34771 12.638C3.8386 12.4678 4.37031 12.4548 4.86895 12.6008C5.36758 12.7467 5.80836 13.0444 6.13 13.4524M5.83333 16.6666V14.9999C5.83333 14.4533 5.93833 13.9308 6.13 13.4524M12.5 5.83325C12.5 6.49629 12.2366 7.13218 11.7678 7.60102C11.2989 8.06986 10.663 8.33325 10 8.33325C9.33696 8.33325 8.70107 8.06986 8.23223 7.60102C7.76339 7.13218 7.5 6.49629 7.5 5.83325C7.5 5.17021 7.76339 4.53433 8.23223 4.06549C8.70107 3.59664 9.33696 3.33325 10 3.33325C10.663 3.33325 11.2989 3.59664 11.7678 4.06549C12.2366 4.53433 12.5 5.17021 12.5 5.83325ZM17.5 8.33325C17.5 8.77528 17.3244 9.1992 17.0118 9.51176C16.6993 9.82432 16.2754 9.99992 15.8333 9.99992C15.3913 9.99992 14.9674 9.82432 14.6548 9.51176C14.3423 9.1992 14.1667 8.77528 14.1667 8.33325C14.1667 7.89122 14.3423 7.4673 14.6548 7.15474C14.9674 6.84218 15.3913 6.66659 15.8333 6.66659C16.2754 6.66659 16.6993 6.84218 17.0118 7.15474C17.3244 7.4673 17.5 7.89122 17.5 8.33325ZM5.83333 8.33325C5.83333 8.77528 5.65774 9.1992 5.34518 9.51176C5.03262 9.82432 4.60869 9.99992 4.16667 9.99992C3.72464 9.99992 3.30072 9.82432 2.98815 9.51176C2.67559 9.1992 2.5 8.77528 2.5 8.33325C2.5 7.89122 2.67559 7.4673 2.98815 7.15474C3.30072 6.84218 3.72464 6.66659 4.16667 6.66659C4.60869 6.66659 5.03262 6.84218 5.34518 7.15474C5.65774 7.4673 5.83333 7.89122 5.83333 8.33325Z" stroke="#003874" stroke-width="2" stroke-linecap="round" stroke-linejoin="round"/>
</svg>
