<svg width="32" height="32" viewBox="0 0 32 32" fill="none" xmlns="http://www.w3.org/2000/svg">
<circle cx="16" cy="16" r="15" stroke="black" stroke-width="2"/>
<circle cx="16" cy="16" r="15" stroke="#003874" stroke-width="2"/>
<path d="M16 14.3334V19.3334M16 19.3334L13.5 16.8334M16 19.3334L18.5 16.8334M8.5 20.1667V11.8334C8.5 11.3914 8.67559 10.9675 8.98816 10.6549C9.30072 10.3423 9.72464 10.1667 10.1667 10.1667H15.1667L16.8333 11.8334H21.8333C22.2754 11.8334 22.6993 12.009 23.0118 12.3216C23.3244 12.6341 23.5 13.0581 23.5 13.5001V20.1667C23.5 20.6088 23.3244 21.0327 23.0118 21.3453C22.6993 21.6578 22.2754 21.8334 21.8333 21.8334H10.1667C9.72464 21.8334 9.30072 21.6578 8.98816 21.3453C8.67559 21.0327 8.5 20.6088 8.5 20.1667Z" stroke="#003874" stroke-width="1.5" stroke-linecap="round" stroke-linejoin="round"/>
</svg>
