<svg width="56" height="56" viewBox="0 0 56 56" fill="none" xmlns="http://www.w3.org/2000/svg">
<rect width="56" height="56" rx="28" fill="#039A2B" fill-opacity="0.2"/>
<path d="M16 25.3334H40M21.3333 32.0001H22.6667M28 32.0001H29.3333M20 37.3334H36C37.0609 37.3334 38.0783 36.912 38.8284 36.1618C39.5786 35.4117 40 34.3943 40 33.3334V22.6667C40 21.6059 39.5786 20.5885 38.8284 19.8383C38.0783 19.0882 37.0609 18.6667 36 18.6667H20C18.9391 18.6667 17.9217 19.0882 17.1716 19.8383C16.4214 20.5885 16 21.6059 16 22.6667V33.3334C16 34.3943 16.4214 35.4117 17.1716 36.1618C17.9217 36.912 18.9391 37.3334 20 37.3334Z" stroke="#039A2B" stroke-width="2" stroke-linecap="round" stroke-linejoin="round"/>
</svg>
