<svg width="42" height="42" viewBox="0 0 42 42" fill="none" xmlns="http://www.w3.org/2000/svg">
<rect width="42" height="42" rx="21" fill="#188249" fill-opacity="0.8"/>
<path d="M17 13H15C14.4696 13 13.9609 13.2107 13.5858 13.5858C13.2107 13.9609 13 14.4696 13 15V27C13 27.5304 13.2107 28.0391 13.5858 28.4142C13.9609 28.7893 14.4696 29 15 29H27C27.5304 29 28.0391 28.7893 28.4142 28.4142C28.7893 28.0391 29 27.5304 29 27V15C29 14.4696 28.7893 13.9609 28.4142 13.5858C28.0391 13.2107 27.5304 13 27 13H25M21 12V20M21 20L24 17M21 20L18 17M13 22H15.586C15.8512 22.0001 16.1055 22.1055 16.293 22.293L18.707 24.707C18.8945 24.8945 19.1488 24.9999 19.414 25H22.586C22.8512 24.9999 23.1055 24.8945 23.293 24.707L25.707 22.293C25.8945 22.1055 26.1488 22.0001 26.414 22H29" stroke="white" stroke-width="2" stroke-linecap="round" stroke-linejoin="round"/>
</svg>
